<svg width="24" height="24" viewBox="0 0 24 24" fill="none" xmlns="http://www.w3.org/2000/svg">
<path fill-rule="evenodd" clip-rule="evenodd" d="M6.36001 2.53687C4.85735 2.70332 3.47054 3.42345 2.47001 4.55687C1.03201 6.21187 0.66001 8.27987 1.32301 10.9369C1.74001 12.6129 2.63801 14.3859 3.87501 15.9769C5.46901 18.0279 7.83901 20.0879 10.564 21.7909C11.342 22.2769 11.745 22.3969 12.29 22.3039C12.665 22.2399 12.93 22.1129 13.64 21.6589C17.599 19.1239 20.382 16.2609 21.846 13.2169C22.977 10.8649 23.296 8.35987 22.693 6.57687C21.743 3.76687 18.812 2.04687 15.952 2.61987C14.779 2.85487 13.572 3.53387 12.39 4.62387L12 4.98287L11.61 4.62387C10.426 3.53187 9.22901 2.85887 8.04001 2.61687C7.48572 2.51857 6.92113 2.49168 6.36001 2.53687Z" fill="url(#paint0_linear_3366_5321)"/>
<defs>
<linearGradient id="paint0_linear_3366_5321" x1="1.00549" y1="2.51001" x2="20.7224" y2="24.3797" gradientUnits="userSpaceOnUse">
<stop stop-color="#FFA1A1"/>
<stop offset="1" stop-color="#FF6BA2"/>
</linearGradient>
</defs>
</svg>
