<?xml version="1.0" encoding="utf-8"?><svg xmlns="http://www.w3.org/2000/svg" xmlns:xlink="http://www.w3.org/1999/xlink"><symbol viewBox="0 0 64 64" id="apple_logo" xmlns="http://www.w3.org/2000/svg"><path d="M54.166 19.783c-.258.162-6.401 3.571-6.401 11.13.29 8.621 7.752 11.644 7.88 11.644-.128.162-1.127 4.119-4.085 8.267C49.213 54.398 46.607 58 42.65 58c-3.764 0-5.115-2.381-9.458-2.381-4.664 0-5.984 2.381-9.555 2.381-3.957 0-6.756-3.795-9.232-7.335-3.216-4.633-5.95-11.903-6.047-18.883-.065-3.699.644-7.335 2.444-10.423 2.541-4.312 7.077-7.238 12.031-7.335 3.795-.128 7.173 2.606 9.49 2.606 2.22 0 6.37-2.606 11.065-2.606 2.027.002 7.432.612 10.778 5.759zm-22.164-6.498c-.676-3.378 1.19-6.756 2.927-8.911C37.149 1.769 40.655 0 43.678 0a12.597 12.597 0 0 1-3.216 9.104c-1.962 2.606-5.34 4.567-8.46 4.181z"/></symbol><symbol viewBox="0 0 24 24" id="arrow_right" xmlns="http://www.w3.org/2000/svg"><path d="M12.293 6.707a1 1 0 0 1 1.414-1.414l6 6a.996.996 0 0 1 .282.56v.003a1.009 1.009 0 0 1-.007.335.995.995 0 0 1-.275.516l-6 6a1 1 0 0 1-1.414-1.414L16.586 13H5a1 1 0 1 1 0-2h11.586l-4.293-4.293Z"/></symbol><symbol viewBox="0 0 24 24" id="check" xmlns="http://www.w3.org/2000/svg"><path d="M9.576 16.833a.985.985 0 0 1-.176-.157l-3.12-3.518a1.179 1.179 0 0 1 0-1.526.882.882 0 0 1 1.354 0l2.452 2.766 6.28-7.082a.882.882 0 0 1 1.354 0 1.179 1.179 0 0 1 0 1.526l-6.955 7.842c-.323.364-.819.413-1.189.149Z"/></symbol><symbol viewBox="0 0 24 24" id="check_circle" xmlns="http://www.w3.org/2000/svg"><path fill-rule="evenodd" clip-rule="evenodd" d="M12 0C5.373 0 0 5.373 0 12s5.373 12 12 12 12-5.373 12-12S18.627 0 12 0ZM9.4 16.676a.985.985 0 0 0 .176.157c.37.265.866.215 1.189-.149l6.955-7.842a1.179 1.179 0 0 0 0-1.526.882.882 0 0 0-1.354 0l-6.28 7.082-2.452-2.766a.882.882 0 0 0-1.354 0 1.179 1.179 0 0 0 0 1.526l3.12 3.518Z"/></symbol><symbol viewBox="0 0 24 24" id="chevron_down" xmlns="http://www.w3.org/2000/svg"><path fill-rule="evenodd" clip-rule="evenodd" d="M5.293 8.793a1 1 0 0 1 1.414 0L12 14.086l5.293-5.293a1 1 0 1 1 1.414 1.414l-6 6a1 1 0 0 1-1.414 0l-6-6a1 1 0 0 1 0-1.414Z"/></symbol><symbol viewBox="0 0 24 24" id="chevron_left" xmlns="http://www.w3.org/2000/svg"><path fill-rule="evenodd" clip-rule="evenodd" d="M15.207 5.293a1 1 0 0 1 0 1.414L9.914 12l5.293 5.293a1 1 0 0 1-1.414 1.414l-6-6a1 1 0 0 1 0-1.414l6-6a1 1 0 0 1 1.414 0Z"/></symbol><symbol viewBox="0 0 24 24" id="chevron_right" xmlns="http://www.w3.org/2000/svg"><path fill-rule="evenodd" clip-rule="evenodd" d="M8.793 5.293a1 1 0 0 1 1.414 0l6 6a1 1 0 0 1 0 1.414l-6 6a1 1 0 0 1-1.414-1.414L14.086 12 8.793 6.707a1 1 0 0 1 0-1.414Z"/></symbol><symbol viewBox="0 0 24 24" id="cross" xmlns="http://www.w3.org/2000/svg"><path fill-rule="evenodd" clip-rule="evenodd" d="M5.293 5.293a1 1 0 0 1 1.414 0L12 10.586l5.293-5.293a1 1 0 1 1 1.414 1.414L13.414 12l5.293 5.293a1 1 0 0 1-1.414 1.414L12 13.414l-5.293 5.293a1 1 0 0 1-1.414-1.414L10.586 12 5.293 6.707a1 1 0 0 1 0-1.414Z"/></symbol><symbol viewBox="0 0 24 24" id="cross_circle" xmlns="http://www.w3.org/2000/svg"><path fill-rule="evenodd" clip-rule="evenodd" d="M12 0C5.373 0 0 5.373 0 12s5.373 12 12 12 12-5.373 12-12S18.627 0 12 0ZM8.707 7.293a1 1 0 0 0-1.414 1.414L10.586 12l-3.293 3.293a1 1 0 1 0 1.414 1.414L12 13.414l3.293 3.293a1 1 0 0 0 1.414-1.414L13.414 12l3.293-3.293a1 1 0 0 0-1.414-1.414L12 10.586 8.707 7.293Z"/></symbol><symbol viewBox="0 0 24 24" id="email" xmlns="http://www.w3.org/2000/svg"><path fill-rule="evenodd" clip-rule="evenodd" d="M5 5.75A1.25 1.25 0 0 0 3.75 7v10A1.25 1.25 0 0 0 5 18.25h14A1.25 1.25 0 0 0 20.25 17V7A1.25 1.25 0 0 0 19 5.75H5Zm-1.945-.695A2.75 2.75 0 0 1 5 4.25h14A2.75 2.75 0 0 1 21.75 7v10A2.75 2.75 0 0 1 19 19.75H5A2.75 2.75 0 0 1 2.25 17V7c0-.73.29-1.429.805-1.945Z"/><path fill-rule="evenodd" clip-rule="evenodd" d="M2.376 6.584a.75.75 0 0 1 1.04-.208L12 12.099l8.584-5.723a.75.75 0 1 1 .832 1.248l-9 6a.75.75 0 0 1-.832 0l-9-6a.75.75 0 0 1-.208-1.04Z"/></symbol><symbol viewBox="0 0 24 24" id="example" xmlns="http://www.w3.org/2000/svg"><path d="M15.5 10a1.5 1.5 0 1 0 0-3 1.5 1.5 0 0 0 0 3Z"/><path d="M3 5a2 2 0 0 1 2-2h14a2 2 0 0 1 2 2v14a2 2 0 0 1-2 2H5a2 2 0 0 1-2-2V5Zm16 0H5v7.92l3.375-2.7a1 1 0 0 1 1.25 0l4.3 3.44 1.368-1.367a1 1 0 0 1 1.414 0L19 14.586V5ZM5 19h14v-1.586l-3-3-1.293 1.293a1 1 0 0 1-1.332.074L9 12.28l-4 3.2V19Z"/></symbol><symbol viewBox="0 0 50 50" id="google_play" xmlns="http://www.w3.org/2000/svg"><path d="m7.125 2 21.656 21.5 5.938-5.938L8.469 2.406A2.873 2.873 0 0 0 7.125 2ZM5.312 3A2.466 2.466 0 0 0 5 4.219V46c0 .336.07.637.188.906l22.156-22Zm31.22 15.594-6.344 6.312 6.343 6.282 7.75-4.438c1.102-.637 1.258-1.445 1.25-1.875-.011-.71-.46-1.375-1.218-1.781-.66-.356-5.563-3.211-7.782-4.5Zm-7.75 7.718L6.936 47.97a2.46 2.46 0 0 0 1.125-.313l18.157-10.5 8.531-4.906Z"/></symbol><symbol viewBox="0 0 24 24" id="hamburger" xmlns="http://www.w3.org/2000/svg"><path fill-rule="evenodd" clip-rule="evenodd" d="M2 6c0-1 1-1 1-1h18s1 0 1 1-1 1-1 1H3S2 7 2 6Zm0 6c0-1 1-1 1-1h18s1 0 1 1-1 1-1 1H3s-1 0-1-1Zm0 6c0-1 1-1 1-1h18s1 0 1 1-1 1-1 1H3s-1 0-1-1Z"/></symbol><symbol viewBox="0 0 24 24" id="like" xmlns="http://www.w3.org/2000/svg"><path fill-rule="evenodd" clip-rule="evenodd" d="M1 7.95C1 4.654 3.696 2 7 2c1.729 0 3.204.927 4.174 1.73.317.263.595.525.826.76.231-.235.51-.497.826-.76C13.796 2.927 15.271 2 17 2c3.304 0 6 2.654 6 5.95 0 1.248-.25 3.288-1.648 5.711-1.393 2.418-3.896 5.164-8.316 7.88l-.004.003a1.985 1.985 0 0 1-2.064 0l-.004-.002c-4.42-2.717-6.923-5.463-8.316-7.88C1.25 11.237 1 9.197 1 7.95Z"/></symbol><symbol viewBox="0 0 24 24" id="map_pin" xmlns="http://www.w3.org/2000/svg"><path fill-rule="evenodd" clip-rule="evenodd" d="M9.348 8.348a3.75 3.75 0 1 1 5.304 5.303 3.75 3.75 0 0 1-5.304-5.303ZM12 8.75a2.25 2.25 0 1 0 0 4.5 2.25 2.25 0 0 0 0-4.5Z"/><path fill-rule="evenodd" clip-rule="evenodd" d="M12 3.75a7.25 7.25 0 0 0-5.127 12.377l4.244 4.243a1.25 1.25 0 0 0 1.767 0l4.243-4.243A7.25 7.25 0 0 0 12 3.75Zm-4.861-.025a8.75 8.75 0 0 1 11.048 13.463l-4.243 4.242a2.75 2.75 0 0 1-3.887 0l-4.244-4.242A8.75 8.75 0 0 1 7.139 3.725Z"/></symbol><symbol viewBox="0 0 24 24" id="phone" xmlns="http://www.w3.org/2000/svg"><path fill-rule="evenodd" clip-rule="evenodd" d="M5 4.75a1.25 1.25 0 0 0-1.25 1.23 15.25 15.25 0 0 0 14.27 14.27A1.25 1.25 0 0 0 19.25 19v-3.492l-3.935-1.574-1.172 1.952a.75.75 0 0 1-.975.287 11.75 11.75 0 0 1-5.34-5.341.75.75 0 0 1 .286-.975l1.952-1.171L8.492 4.75H5Zm-1.945-.695A2.75 2.75 0 0 1 5 3.25h4a.75.75 0 0 1 .696.471l2 5a.75.75 0 0 1-.31.922l-1.888 1.133a10.25 10.25 0 0 0 3.726 3.726l1.133-1.888a.75.75 0 0 1 .921-.31l5 2a.75.75 0 0 1 .472.696v4a2.75 2.75 0 0 1-2.796 2.749A16.75 16.75 0 0 1 2.25 6c0-.73.29-1.429.805-1.945Z"/></symbol><symbol viewBox="0 0 24 24" id="star" xmlns="http://www.w3.org/2000/svg"><path d="M9.525 8.526a.5.5 0 0 1-.386.28l-4.66.615a.5.5 0 0 0-.279.858l3.409 3.236a.5.5 0 0 1 .147.454l-.855 4.62a.5.5 0 0 0 .73.531l4.13-2.242a.5.5 0 0 1 .477 0l4.131 2.242a.5.5 0 0 0 .73-.53l-.856-4.621a.5.5 0 0 1 .148-.454l3.408-3.236a.5.5 0 0 0-.279-.858l-4.659-.614a.5.5 0 0 1-.386-.28l-2.024-4.242a.5.5 0 0 0-.902 0L9.525 8.526Z"/></symbol><symbol viewBox="0 0 50 50" id="windows_store" xmlns="http://www.w3.org/2000/svg"><path d="m19.852 7.761-15 2.25A1 1 0 0 0 4 11v12a1 1 0 0 0 1 1h15a1 1 0 0 0 1-1V8.75a1.001 1.001 0 0 0-1.148-.989zm25.8-3.519a1.013 1.013 0 0 0-.801-.231l-21 3.15A1 1 0 0 0 23 8.15V23a1 1 0 0 0 1 1h21a1 1 0 0 0 1-1V5c0-.291-.127-.567-.348-.758zM20 26H5a1 1 0 0 0-1 1v12a1 1 0 0 0 .852.989l15 2.25A.999.999 0 0 0 21 41.25V27a1 1 0 0 0-1-1zm25 0H24a1 1 0 0 0-1 1v14.85a1 1 0 0 0 .852.989l21 3.15A.999.999 0 0 0 46 45V27a1 1 0 0 0-1-1z"/></symbol></svg>