<?xml version="1.0" encoding="utf-8"?>
<svg xmlns="http://www.w3.org/2000/svg" xmlns:xlink="http://www.w3.org/1999/xlink">
    <symbol viewBox="0 0 24 24" id="clock" xmlns="http://www.w3.org/2000/svg">
        <path d="M13 7C13 6.44772 12.5523 6 12 6C11.4477 6 11 6.44772 11 7V12C11 12.2652 11.1054 12.5196 11.2929 12.7071L14.2929 15.7071C14.6834 16.0976 15.3166 16.0976 15.7071 15.7071C16.0976 15.3166 16.0976 14.6834 15.7071 14.2929L13 11.5858V7Z"/>
        <path fill-rule="evenodd" clip-rule="evenodd" d="M12 2C6.47715 2 2 6.47715 2 12C2 17.5228 6.47715 22 12 22C17.5228 22 22 17.5228 22 12C22 6.47715 17.5228 2 12 2ZM4 12C4 7.58172 7.58172 4 12 4C16.4183 4 20 7.58172 20 12C20 16.4183 16.4183 20 12 20C7.58172 20 4 16.4183 4 12Z"/>
    </symbol>

    <symbol viewBox="0 0 24 24" id="cross" xmlns="http://www.w3.org/2000/svg">
        <path fill-rule="evenodd" clip-rule="evenodd" d="M5.29289 5.29289C5.68342 4.90237 6.31658 4.90237 6.70711 5.29289L12 10.5858L17.2929 5.29289C17.6834 4.90237 18.3166 4.90237 18.7071 5.29289C19.0976 5.68342 19.0976 6.31658 18.7071 6.70711L13.4142 12L18.7071 17.2929C19.0976 17.6834 19.0976 18.3166 18.7071 18.7071C18.3166 19.0976 17.6834 19.0976 17.2929 18.7071L12 13.4142L6.70711 18.7071C6.31658 19.0976 5.68342 19.0976 5.29289 18.7071C4.90237 18.3166 4.90237 17.6834 5.29289 17.2929L10.5858 12L5.29289 6.70711C4.90237 6.31658 4.90237 5.68342 5.29289 5.29289Z"/>
    </symbol>

    <symbol viewBox="0 0 24 24" id="heart" xmlns="http://www.w3.org/2000/svg">
        <path fill-rule="evenodd" clip-rule="evenodd" d="M6.36001 2.53687C4.85735 2.70332 3.47054 3.42345 2.47001 4.55687C1.03201 6.21187 0.66001 8.27987 1.32301 10.9369C1.74001 12.6129 2.63801 14.3859 3.87501 15.9769C5.46901 18.0279 7.83901 20.0879 10.564 21.7909C11.342 22.2769 11.745 22.3969 12.29 22.3039C12.665 22.2399 12.93 22.1129 13.64 21.6589C17.599 19.1239 20.382 16.2609 21.846 13.2169C22.977 10.8649 23.296 8.35987 22.693 6.57687C21.743 3.76687 18.812 2.04687 15.952 2.61987C14.779 2.85487 13.572 3.53387 12.39 4.62387L12 4.98287L11.61 4.62387C10.426 3.53187 9.22901 2.85887 8.04001 2.61687C7.48572 2.51857 6.92113 2.49168 6.36001 2.53687ZM7.82001 4.61487C8.23501 4.72087 9.00101 5.10587 9.47701 5.44687C9.90701 5.75487 10.775 6.57487 11.124 7.00187C11.305 7.22287 11.418 7.31987 11.606 7.41387C12.1 7.66087 12.421 7.55787 12.868 7.01187C13.227 6.57187 14.093 5.75387 14.522 5.44687C14.994 5.10987 15.76 4.72387 16.18 4.61087C16.606 4.49787 17.355 4.48787 17.84 4.59087C18.4271 4.71936 18.9784 4.97677 19.4538 5.34446C19.9292 5.71215 20.317 6.18092 20.589 6.71687C20.777 7.09287 20.881 7.43787 20.95 7.91587C21.005 8.29487 21.007 8.44487 20.967 8.97687C20.87 10.2389 20.573 11.2779 19.953 12.5169C18.869 14.6849 17.062 16.7049 14.46 18.6569C13.582 19.3149 12.11 20.2969 12 20.2969C11.89 20.2969 10.418 19.3149 9.54001 18.6569C7.31401 16.9869 5.64301 15.2359 4.53801 13.4169C3.63501 11.9289 3.14901 10.4969 3.03301 8.97687C2.99301 8.44387 2.99501 8.29487 3.05001 7.91387C3.08616 7.66484 3.142 7.41907 3.21701 7.17887C3.79101 5.53587 5.38301 4.44387 7.10001 4.51587C7.32001 4.52587 7.64401 4.56987 7.82001 4.61487Z"/>
    </symbol>

    <symbol viewBox="0 0 24 24" id="heart_filled" xmlns="http://www.w3.org/2000/svg">
        <path fill-rule="evenodd" clip-rule="evenodd" d="M6.36001 2.53687C4.85735 2.70332 3.47054 3.42345 2.47001 4.55687C1.03201 6.21187 0.66001 8.27987 1.32301 10.9369C1.74001 12.6129 2.63801 14.3859 3.87501 15.9769C5.46901 18.0279 7.83901 20.0879 10.564 21.7909C11.342 22.2769 11.745 22.3969 12.29 22.3039C12.665 22.2399 12.93 22.1129 13.64 21.6589C17.599 19.1239 20.382 16.2609 21.846 13.2169C22.977 10.8649 23.296 8.35987 22.693 6.57687C21.743 3.76687 18.812 2.04687 15.952 2.61987C14.779 2.85487 13.572 3.53387 12.39 4.62387L12 4.98287L11.61 4.62387C10.426 3.53187 9.22901 2.85887 8.04001 2.61687C7.48572 2.51857 6.92113 2.49168 6.36001 2.53687Z" fill="url(#paint0_linear_3366_5321)"/>
        <defs>
        <linearGradient id="paint0_linear_3366_5321" x1="1.00549" y1="2.51001" x2="20.7224" y2="24.3797" gradientUnits="userSpaceOnUse">
        <stop stop-color="#FFA1A1"/>
        <stop offset="1" stop-color="#FF6BA2"/>
        </linearGradient>
        </defs>
    </symbol>

    <symbol viewBox="0 0 24 24" id="search" xmlns="http://www.w3.org/2000/svg">
        <path fill-rule="evenodd" clip-rule="evenodd" d="M10.5 3C8.51088 3 6.60322 3.79018 5.1967 5.1967C3.79018 6.60322 3 8.51088 3 10.5C3 12.4891 3.79018 14.3968 5.1967 15.8033C6.60322 17.2098 8.51088 18 10.5 18C12.4801 18 14.3794 17.217 15.7841 15.8225C15.7917 15.8143 15.7995 15.8062 15.8075 15.7983C15.8148 15.791 15.8221 15.784 15.8295 15.777C17.2196 14.373 18 12.4768 18 10.5C18 8.51088 17.2098 6.60322 15.8033 5.1967C14.3968 3.79018 12.4891 3 10.5 3ZM17.8904 16.4693C19.2491 14.7873 20 12.6823 20 10.5C20 7.98044 18.9991 5.56408 17.2175 3.78249C15.4359 2.00089 13.0196 1 10.5 1C7.98044 1 5.56408 2.00089 3.78249 3.78249C2.00089 5.56408 1 7.98044 1 10.5C1 13.0196 2.00089 15.4359 3.78249 17.2175C5.56408 18.9991 7.98044 20 10.5 20C12.6856 20 14.7936 19.2469 16.4769 17.8843L20.2923 21.7065C20.6824 22.0973 21.3156 22.0979 21.7065 21.7077C22.0973 21.3176 22.0979 20.6844 21.7077 20.2935L17.8904 16.4693Z"/>
    </symbol>
</svg>