<?xml version="1.0" encoding="utf-8"?>
<svg xmlns="http://www.w3.org/2000/svg" xmlns:xlink="http://www.w3.org/1999/xlink">
    <symbol viewBox="0 0 24 24" id="arrow_left" xmlns="http://www.w3.org/2000/svg">
        <path fill-rule="evenodd" clip-rule="evenodd" d="M4 12C4 11.4477 4.44772 11 5 11H19C19.5523 11 20 11.4477 20 12C20 12.5523 19.5523 13 19 13H5C4.44772 13 4 12.5523 4 12Z"/>
        <path fill-rule="evenodd" clip-rule="evenodd" d="M4.29289 11.2929C4.68342 10.9024 5.31658 10.9024 5.70711 11.2929L11.7071 17.2929C12.0976 17.6834 12.0976 18.3166 11.7071 18.7071C11.3166 19.0976 10.6834 19.0976 10.2929 18.7071L4.29289 12.7071C3.90237 12.3166 3.90237 11.6834 4.29289 11.2929Z"/>
        <path fill-rule="evenodd" clip-rule="evenodd" d="M11.7071 5.29289C12.0976 5.68342 12.0976 6.31658 11.7071 6.70711L5.70711 12.7071C5.31658 13.0976 4.68342 13.0976 4.29289 12.7071C3.90237 12.3166 3.90237 11.6834 4.29289 11.2929L10.2929 5.29289C10.6834 4.90237 11.3166 4.90237 11.7071 5.29289Z"/>
    </symbol>

    <symbol viewBox="0 0 24 24" id="camera" xmlns="http://www.w3.org/2000/svg">
        <path fill-rule="evenodd" clip-rule="evenodd" d="M12 8C9.23858 8 7 10.2386 7 13C7 15.7614 9.23858 18 12 18C14.7614 18 17 15.7614 17 13C17 10.2386 14.7614 8 12 8ZM9 13C9 11.3431 10.3431 10 12 10C13.6569 10 15 11.3431 15 13C15 14.6569 13.6569 16 12 16C10.3431 16 9 14.6569 9 13Z"/>
        <path fill-rule="evenodd" clip-rule="evenodd" d="M9 2C8.66565 2 8.35342 2.1671 8.16795 2.4453L6.46482 5H3C2.20435 5 1.44129 5.31607 0.87868 5.87868C0.316071 6.44129 0 7.20435 0 8V19C0 19.7957 0.316071 20.5587 0.87868 21.1213C1.44129 21.6839 2.20435 22 3 22H21C21.7957 22 22.5587 21.6839 23.1213 21.1213C23.6839 20.5587 24 19.7957 24 19V8C24 7.20435 23.6839 6.44129 23.1213 5.87868C22.5587 5.31607 21.7957 5 21 5H17.5352L15.8321 2.4453C15.6466 2.1671 15.3344 2 15 2H9ZM7.83205 6.5547L9.53518 4H14.4648L16.1679 6.5547C16.3534 6.8329 16.6656 7 17 7H21C21.2652 7 21.5196 7.10536 21.7071 7.29289C21.8946 7.48043 22 7.73478 22 8V19C22 19.2652 21.8946 19.5196 21.7071 19.7071C21.5196 19.8946 21.2652 20 21 20H3C2.73478 20 2.48043 19.8946 2.29289 19.7071C2.10536 19.5196 2 19.2652 2 19V8C2 7.73478 2.10536 7.48043 2.29289 7.29289C2.48043 7.10536 2.73478 7 3 7H7C7.33435 7 7.64658 6.8329 7.83205 6.5547Z"/>
    </symbol>

    <symbol viewBox="0 0 24 24" id="chevron_right" xmlns="http://www.w3.org/2000/svg">
        <path fill-rule="evenodd" clip-rule="evenodd" d="M8.29289 5.29289C8.68342 4.90237 9.31658 4.90237 9.70711 5.29289L15.7071 11.2929C16.0976 11.6834 16.0976 12.3166 15.7071 12.7071L9.70711 18.7071C9.31658 19.0976 8.68342 19.0976 8.29289 18.7071C7.90237 18.3166 7.90237 17.6834 8.29289 17.2929L13.5858 12L8.29289 6.70711C7.90237 6.31658 7.90237 5.68342 8.29289 5.29289Z"/>
    </symbol>

    <symbol viewBox="0 0 24 24" id="clock" xmlns="http://www.w3.org/2000/svg">
        <path d="M13 7C13 6.44772 12.5523 6 12 6C11.4477 6 11 6.44772 11 7V12C11 12.2652 11.1054 12.5196 11.2929 12.7071L14.2929 15.7071C14.6834 16.0976 15.3166 16.0976 15.7071 15.7071C16.0976 15.3166 16.0976 14.6834 15.7071 14.2929L13 11.5858V7Z"/>
        <path fill-rule="evenodd" clip-rule="evenodd" d="M12 2C6.47715 2 2 6.47715 2 12C2 17.5228 6.47715 22 12 22C17.5228 22 22 17.5228 22 12C22 6.47715 17.5228 2 12 2ZM4 12C4 7.58172 7.58172 4 12 4C16.4183 4 20 7.58172 20 12C20 16.4183 16.4183 20 12 20C7.58172 20 4 16.4183 4 12Z"/>
    </symbol>

    <symbol viewBox="0 0 24 24" id="cross" xmlns="http://www.w3.org/2000/svg">
        <path fill-rule="evenodd" clip-rule="evenodd" d="M5.29289 5.29289C5.68342 4.90237 6.31658 4.90237 6.70711 5.29289L12 10.5858L17.2929 5.29289C17.6834 4.90237 18.3166 4.90237 18.7071 5.29289C19.0976 5.68342 19.0976 6.31658 18.7071 6.70711L13.4142 12L18.7071 17.2929C19.0976 17.6834 19.0976 18.3166 18.7071 18.7071C18.3166 19.0976 17.6834 19.0976 17.2929 18.7071L12 13.4142L6.70711 18.7071C6.31658 19.0976 5.68342 19.0976 5.29289 18.7071C4.90237 18.3166 4.90237 17.6834 5.29289 17.2929L10.5858 12L5.29289 6.70711C4.90237 6.31658 4.90237 5.68342 5.29289 5.29289Z"/>
    </symbol>

    <symbol viewBox="0 0 24 24" id="delete" xmlns="http://www.w3.org/2000/svg">
        <path fill-rule="evenodd" clip-rule="evenodd" d="M8.70005 1.04401C7.91705 1.15501 7.09405 1.67701 6.66305 2.33501C6.57805 2.46401 6.25405 3.11202 5.94105 3.77502L5.37405 4.98002L3.51605 5.00002L1.65805 5.02001L1.45905 5.12202C1.11905 5.29702 0.978054 5.60602 1.00905 6.10402C1.03805 6.56302 1.25005 6.85202 1.63505 6.95902C1.71505 6.98102 2.07705 7.00002 2.44005 7.00002H3.10005L3.83505 13.63C4.23905 17.277 4.59205 20.386 4.62105 20.54C4.73005 21.13 4.98705 21.633 5.39405 22.053C5.85605 22.531 6.38805 22.828 6.98505 22.942C7.43405 23.028 16.5661 23.028 17.0151 22.942C17.6121 22.828 18.1441 22.531 18.6061 22.053C19.0131 21.633 19.2521 21.168 19.3731 20.558C19.4051 20.394 19.7621 17.277 20.1661 13.63L20.9001 7.00002H21.5601C21.9231 7.00002 22.2851 6.98102 22.3651 6.95902C22.4733 6.92982 22.5746 6.87931 22.663 6.81045C22.7514 6.74159 22.8252 6.65577 22.8801 6.55801C22.9671 6.40201 22.9801 6.33202 22.9791 6.00002C22.9771 5.46902 22.8521 5.24701 22.4551 5.07101C22.3701 5.03301 21.8641 5.01502 20.4831 5.00002L18.6261 4.98002L18.0591 3.77502C17.4271 2.43402 17.2941 2.20701 16.9351 1.86001C16.4785 1.41959 15.895 1.13409 15.2671 1.04401C14.8921 0.991015 9.06805 0.992015 8.70005 1.04401ZM15.3291 3.13101C15.4321 3.19201 15.5631 3.30101 15.6181 3.37401C15.7031 3.48501 16.4001 4.91502 16.4001 4.97902C16.4001 4.99002 14.4201 5.00002 12.0001 5.00002C9.58005 5.00002 7.60005 4.99102 7.60005 4.98002C7.60005 4.94102 8.20605 3.66001 8.30405 3.49101C8.4244 3.29029 8.61012 3.13705 8.83005 3.05701C8.95205 3.01302 9.55605 3.00402 12.0601 3.01102L15.1401 3.02001L15.3291 3.13101ZM18.8611 7.17001C18.8481 7.26401 18.5141 10.251 18.1201 13.81C17.3371 20.87 17.4001 20.441 17.0971 20.735C16.8091 21.015 17.0891 21 12.0001 21C6.91105 21 7.19105 21.015 6.90305 20.735C6.60005 20.441 6.66305 20.87 5.88005 13.81C5.48605 10.251 5.15205 7.26401 5.13905 7.17001L5.11505 7.00002H18.8851L18.8611 7.17001ZM9.61405 10.057C9.50744 10.0854 9.40769 10.1351 9.32088 10.2031C9.23407 10.2712 9.162 10.3562 9.10905 10.453L9.02005 10.62L9.00905 13.412C9.00205 15.226 9.01205 16.257 9.03905 16.356C9.14405 16.747 9.43305 16.961 9.89605 16.991C10.3811 17.022 10.6991 16.882 10.8801 16.558L10.9801 16.38V10.62L10.8911 10.453C10.8369 10.3555 10.7646 10.2693 10.6781 10.199C10.4141 10.01 9.95705 9.95002 9.61405 10.057ZM13.6141 10.057C13.5074 10.0854 13.4077 10.1351 13.3209 10.2031C13.2341 10.2712 13.162 10.3562 13.1091 10.453L13.0201 10.62L13.0091 13.412C13.0021 15.226 13.0121 16.257 13.0391 16.356C13.1441 16.747 13.4331 16.961 13.8961 16.991C14.3811 17.022 14.6991 16.882 14.8801 16.558L14.9801 16.38V10.62L14.8911 10.453C14.8369 10.3555 14.7646 10.2693 14.6781 10.199C14.4141 10.01 13.9571 9.95002 13.6141 10.057Z"/>
    </symbol>

    <symbol viewBox="0 0 24 24" id="fork" xmlns="http://www.w3.org/2000/svg">
        <path fill-rule="evenodd" clip-rule="evenodd" d="M1.58579 1.58579C1.96086 1.21071 2.46957 1 3 1H10C10.5304 1 11.0391 1.21071 11.4142 1.58579C11.7893 1.96086 12 2.46957 12 3V8C12 9.32608 11.4732 10.5979 10.5355 11.5355C10.0893 11.9818 9.5674 12.3349 9 12.5826V21C9 21.5304 8.78929 22.0391 8.41421 22.4142C8.03914 22.7893 7.53043 23 7 23H6C5.46957 23 4.96086 22.7893 4.58579 22.4142C4.21071 22.0391 4 21.5304 4 21V12.5826C3.4326 12.3349 2.9107 11.9818 2.46447 11.5355C1.52678 10.5979 1 9.32608 1 8V3C1 2.46957 1.21071 1.96086 1.58579 1.58579ZM7 3V6C7 6.55228 7.44772 7 8 7C8.55228 7 9 6.55228 9 6V3H10V8C10 8.79565 9.68393 9.55871 9.12132 10.1213C8.55871 10.6839 7.79565 11 7 11H6C5.20435 11 4.44129 10.6839 3.87868 10.1213C3.31607 9.55871 3 8.79565 3 8V3H4V6C4 6.55228 4.44772 7 5 7C5.55228 7 6 6.55228 6 6V3H7ZM14 2C14 1.44772 14.4477 1 15 1H18C19.3261 1 20.5979 1.52678 21.5355 2.46447C22.4732 3.40215 23 4.67392 23 6V16C23 16.5523 22.5523 17 22 17H19V21C19 21.5304 18.7893 22.0391 18.4142 22.4142C18.0391 22.7893 17.5304 23 17 23H16C15.4696 23 14.9609 22.7893 14.5858 22.4142C14.2107 22.0391 14 21.5304 14 21V2ZM16 3V21H17V16C17 15.4477 17.4477 15 18 15H21V6C21 5.20435 20.6839 4.44129 20.1213 3.87868C19.5587 3.31607 18.7956 3 18 3H16ZM7 13H6V21H7V13Z"/>
    </symbol>

    <symbol viewBox="0 0 24 24" id="heart" xmlns="http://www.w3.org/2000/svg">
        <path fill-rule="evenodd" clip-rule="evenodd" d="M6.36001 2.53687C4.85735 2.70332 3.47054 3.42345 2.47001 4.55687C1.03201 6.21187 0.66001 8.27987 1.32301 10.9369C1.74001 12.6129 2.63801 14.3859 3.87501 15.9769C5.46901 18.0279 7.83901 20.0879 10.564 21.7909C11.342 22.2769 11.745 22.3969 12.29 22.3039C12.665 22.2399 12.93 22.1129 13.64 21.6589C17.599 19.1239 20.382 16.2609 21.846 13.2169C22.977 10.8649 23.296 8.35987 22.693 6.57687C21.743 3.76687 18.812 2.04687 15.952 2.61987C14.779 2.85487 13.572 3.53387 12.39 4.62387L12 4.98287L11.61 4.62387C10.426 3.53187 9.22901 2.85887 8.04001 2.61687C7.48572 2.51857 6.92113 2.49168 6.36001 2.53687ZM7.82001 4.61487C8.23501 4.72087 9.00101 5.10587 9.47701 5.44687C9.90701 5.75487 10.775 6.57487 11.124 7.00187C11.305 7.22287 11.418 7.31987 11.606 7.41387C12.1 7.66087 12.421 7.55787 12.868 7.01187C13.227 6.57187 14.093 5.75387 14.522 5.44687C14.994 5.10987 15.76 4.72387 16.18 4.61087C16.606 4.49787 17.355 4.48787 17.84 4.59087C18.4271 4.71936 18.9784 4.97677 19.4538 5.34446C19.9292 5.71215 20.317 6.18092 20.589 6.71687C20.777 7.09287 20.881 7.43787 20.95 7.91587C21.005 8.29487 21.007 8.44487 20.967 8.97687C20.87 10.2389 20.573 11.2779 19.953 12.5169C18.869 14.6849 17.062 16.7049 14.46 18.6569C13.582 19.3149 12.11 20.2969 12 20.2969C11.89 20.2969 10.418 19.3149 9.54001 18.6569C7.31401 16.9869 5.64301 15.2359 4.53801 13.4169C3.63501 11.9289 3.14901 10.4969 3.03301 8.97687C2.99301 8.44387 2.99501 8.29487 3.05001 7.91387C3.08616 7.66484 3.142 7.41907 3.21701 7.17887C3.79101 5.53587 5.38301 4.44387 7.10001 4.51587C7.32001 4.52587 7.64401 4.56987 7.82001 4.61487Z"/>
    </symbol>

    <symbol viewBox="0 0 24 24" id="heart_filled" xmlns="http://www.w3.org/2000/svg">
        <path fill-rule="evenodd" clip-rule="evenodd" d="M6.36001 2.53687C4.85735 2.70332 3.47054 3.42345 2.47001 4.55687C1.03201 6.21187 0.66001 8.27987 1.32301 10.9369C1.74001 12.6129 2.63801 14.3859 3.87501 15.9769C5.46901 18.0279 7.83901 20.0879 10.564 21.7909C11.342 22.2769 11.745 22.3969 12.29 22.3039C12.665 22.2399 12.93 22.1129 13.64 21.6589C17.599 19.1239 20.382 16.2609 21.846 13.2169C22.977 10.8649 23.296 8.35987 22.693 6.57687C21.743 3.76687 18.812 2.04687 15.952 2.61987C14.779 2.85487 13.572 3.53387 12.39 4.62387L12 4.98287L11.61 4.62387C10.426 3.53187 9.22901 2.85887 8.04001 2.61687C7.48572 2.51857 6.92113 2.49168 6.36001 2.53687Z" fill="url(#paint0_linear_3366_5321)"/>
        <defs>
        <linearGradient id="paint0_linear_3366_5321" x1="1.00549" y1="2.51001" x2="20.7224" y2="24.3797" gradientUnits="userSpaceOnUse">
        <stop stop-color="#FFA1A1"/>
        <stop offset="1" stop-color="#FF6BA2"/>
        </linearGradient>
        </defs>
    </symbol>

    <symbol viewBox="0 0 24 24" id="login" xmlns="http://www.w3.org/2000/svg">
        <path fill-rule="evenodd" clip-rule="evenodd" d="M15.76 2.19129C14.176 2.29929 7.40101 2.89628 7.22001 2.94328C7.02092 3.00333 6.82696 3.07924 6.64001 3.17029C6.35701 3.30829 6.23301 3.40328 5.89601 3.73828C5.55901 4.07428 5.46601 4.19629 5.32701 4.48029C4.99401 5.16129 5.02001 4.51328 5.02001 12.0003C5.02001 19.4883 4.99401 18.8403 5.32701 19.5203C5.46501 19.8023 5.56201 19.9293 5.89701 20.2653C6.23601 20.6053 6.35401 20.6963 6.64001 20.8343C6.82701 20.9253 7.08801 21.0273 7.22001 21.0623C7.55201 21.1483 15.901 21.8513 16.22 21.8203C17.478 21.6963 18.454 20.9153 18.87 19.7003L18.979 19.3803L18.98 18.0003C18.98 16.6493 18.978 16.6163 18.891 16.4533C18.689 16.0763 18.138 15.9023 17.629 16.0553C17.378 16.1313 17.215 16.2563 17.109 16.4533C17.024 16.6133 17.019 16.6743 17 17.8603C16.982 18.9693 16.972 19.1153 16.906 19.2403C16.8355 19.3794 16.736 19.5018 16.6142 19.5993C16.4925 19.6968 16.3512 19.767 16.2 19.8053C16 19.8513 7.974 19.1853 7.68701 19.0983C7.43321 19.0085 7.2214 18.8284 7.09201 18.5923C7.02301 18.4663 7.02001 18.1493 7.02001 12.0003C7.02001 5.85128 7.02301 5.53428 7.09201 5.40828C7.22301 5.16928 7.46001 4.96828 7.68801 4.90428C7.89601 4.84628 15.485 4.19329 15.98 4.19129C16.1688 4.18575 16.3552 4.23454 16.517 4.33186C16.6789 4.42919 16.8094 4.57095 16.893 4.74029C16.975 4.89229 16.981 4.96628 17 6.14029C17.02 7.30828 17.026 7.38928 17.106 7.54028C17.285 7.87528 17.496 7.97829 18 7.97829C18.504 7.97829 18.715 7.87528 18.894 7.54028C18.977 7.38528 18.98 7.33529 18.98 6.00029L18.979 4.62028L18.87 4.30028C18.398 2.92128 17.179 2.09429 15.76 2.19129ZM13.92 7.06329C13.8329 7.11038 13.7522 7.16853 13.68 7.23629L12.017 9.22529C11.136 10.2793 10.366 11.1733 10.307 11.2113C10.131 11.3273 9.96001 11.7153 9.96001 12.0003C9.96001 12.2813 10.127 12.6653 10.302 12.7883C10.359 12.8273 11.122 13.7153 11.997 14.7603C12.5572 15.4325 13.1212 16.1015 13.689 16.7673C13.841 16.9273 14.105 17.0473 14.308 17.0473C14.845 17.0473 15.479 16.3773 15.379 15.9143C15.323 15.6543 15.188 15.4673 14.174 14.2503L13.15 13.0203L16.765 13.0003C20.365 12.9803 20.381 12.9803 20.54 12.8943C20.875 12.7153 20.978 12.5043 20.978 12.0003C20.978 11.4693 20.853 11.2473 20.455 11.0713C20.366 11.0313 19.536 11.0163 16.745 11.0003L13.15 10.9803L14.174 9.75029C14.737 9.07429 15.232 8.45328 15.274 8.37028C15.464 7.99628 15.417 7.71329 15.112 7.37929C14.739 6.97129 14.292 6.85229 13.92 7.06329Z"/>
    </symbol>

    <symbol viewBox="0 0 25 24" id="plus" xmlns="http://www.w3.org/2000/svg">
        <path fill-rule="evenodd" clip-rule="evenodd" d="M12.5 4C13.0523 4 13.5 4.44771 13.5 5L13.5 19C13.5 19.5523 13.0523 20 12.5 20C11.9477 20 11.5 19.5523 11.5 19V5C11.5 4.44771 11.9477 4 12.5 4Z"/>
        <path fill-rule="evenodd" clip-rule="evenodd" d="M4.5 12C4.5 11.4477 4.94772 11 5.5 11L19.5 11C20.0523 11 20.5 11.4477 20.5 12C20.5 12.5523 20.0523 13 19.5 13H5.5C4.94772 13 4.5 12.5523 4.5 12Z"/>
    </symbol>

    <symbol viewBox="0 0 24 24" id="search" xmlns="http://www.w3.org/2000/svg">
        <path fill-rule="evenodd" clip-rule="evenodd" d="M10.5 3C8.51088 3 6.60322 3.79018 5.1967 5.1967C3.79018 6.60322 3 8.51088 3 10.5C3 12.4891 3.79018 14.3968 5.1967 15.8033C6.60322 17.2098 8.51088 18 10.5 18C12.4801 18 14.3794 17.217 15.7841 15.8225C15.7917 15.8143 15.7995 15.8062 15.8075 15.7983C15.8148 15.791 15.8221 15.784 15.8295 15.777C17.2196 14.373 18 12.4768 18 10.5C18 8.51088 17.2098 6.60322 15.8033 5.1967C14.3968 3.79018 12.4891 3 10.5 3ZM17.8904 16.4693C19.2491 14.7873 20 12.6823 20 10.5C20 7.98044 18.9991 5.56408 17.2175 3.78249C15.4359 2.00089 13.0196 1 10.5 1C7.98044 1 5.56408 2.00089 3.78249 3.78249C2.00089 5.56408 1 7.98044 1 10.5C1 13.0196 2.00089 15.4359 3.78249 17.2175C5.56408 18.9991 7.98044 20 10.5 20C12.6856 20 14.7936 19.2469 16.4769 17.8843L20.2923 21.7065C20.6824 22.0973 21.3156 22.0979 21.7065 21.7077C22.0973 21.3176 22.0979 20.6844 21.7077 20.2935L17.8904 16.4693Z"/>
    </symbol>

    <symbol viewBox="0 0 24 24" id="user" xmlns="http://www.w3.org/2000/svg">
        <path fill-rule="evenodd" clip-rule="evenodd" d="M11.38 1.0428C8.78403 1.2988 6.67603 3.2188 6.11503 5.8398C5.98403 6.4498 5.98403 7.5578 6.11403 8.1598C6.63903 10.5878 8.41703 12.3648 10.84 12.8848C11.446 13.0148 12.554 13.0148 13.16 12.8848C14.397 12.6198 15.412 12.0678 16.269 11.1948C17.109 10.3398 17.626 9.3688 17.885 8.1598C18.015 7.5538 18.015 6.4458 17.885 5.8398C17.626 4.6308 17.109 3.6598 16.269 2.8048C14.978 1.4898 13.23 0.859798 11.38 1.0428ZM12.605 3.0578C14.074 3.2798 15.31 4.3238 15.797 5.7548C15.897 6.0498 16 6.6798 16 6.9998C16 7.3218 15.897 7.9508 15.796 8.2448C15.321 9.6318 14.195 10.6278 12.773 10.9168C10.563 11.3678 8.39603 9.8448 8.05803 7.6048C7.98603 7.20468 7.98603 6.79492 8.05803 6.3948C8.31403 4.6978 9.67503 3.3238 11.358 3.0608C11.7706 2.98979 12.1921 2.98878 12.605 3.0578ZM6.18003 13.0268C5.41857 13.1163 4.69965 13.4255 4.11103 13.9168C3.52459 14.3806 3.0903 15.0092 2.86403 15.7218C2.73903 16.0938 2.70003 16.3338 2.50203 17.9038C2.38003 18.8738 2.28003 19.8248 2.28003 20.0158C2.28003 21.3448 3.13203 22.4708 4.45503 22.8898L4.74003 22.9798H19.26L19.545 22.8898C20.87 22.4708 21.721 21.3448 21.72 20.0118C21.719 19.5278 21.304 16.2708 21.197 15.9068C21.0907 15.5205 20.9236 15.1536 20.702 14.8198C20.139 13.9578 19.208 13.3078 18.234 13.0968C17.834 13.0098 16.942 12.9748 16.693 13.0368C16.251 13.1458 16.041 13.4118 16.009 13.8998C15.978 14.3798 16.119 14.7008 16.439 14.8768C16.591 14.9608 16.691 14.9778 17.177 15.0048C17.807 15.0388 17.955 15.0718 18.299 15.2538C18.818 15.5278 19.213 16.0808 19.316 16.6798C19.391 17.1128 19.72 19.8208 19.72 20.0018C19.7214 20.1921 19.6676 20.3787 19.565 20.539C19.4624 20.6993 19.3154 20.8264 19.142 20.9048L18.94 20.9988H5.06003L4.85803 20.9048C4.68461 20.8264 4.53768 20.6993 4.43508 20.539C4.33248 20.3787 4.27862 20.1921 4.28003 20.0018C4.28003 19.7928 4.66603 16.7268 4.72303 16.4818C4.83803 15.9848 5.26503 15.4698 5.76803 15.2228C6.10003 15.0588 6.39003 15.0008 6.88003 14.9998C7.43303 14.9988 7.69903 14.8818 7.88003 14.5578C7.96703 14.4018 7.98003 14.3318 7.97903 13.9998C7.97803 13.6868 7.96203 13.5908 7.89003 13.4528C7.71103 13.1158 7.40703 12.9968 6.74403 13.0058C6.55585 13.0066 6.36775 13.0137 6.18003 13.0268Z"/>
    </symbol>
</svg>